<svg xmlns="http://www.w3.org/2000/svg" width="180" height="40" viewBox="0 0 180 40" role="img" aria-label="PREMIUM - Training Institute">
  <defs>
    <linearGradient id="g1" x1="0" y1="0" x2="1" y2="1">
      <stop offset="0" stop-color="#0f3b69"/>
      <stop offset="1" stop-color="#0c2a4a"/>
    </linearGradient>
    <linearGradient id="g2" x1="0" y1="0" x2="0" y2="1">
      <stop offset="0" stop-color="#f59e0b"/>
      <stop offset="1" stop-color="#ea580c"/>
    </linearGradient>
  </defs>
  <g transform="translate(8 6)">
    <path d="M16 0c5 0 9 2.5 12 4.5v10c0 7.5-6.5 12.2-12 15-5.5-2.8-12-7.5-12-15v-10C7 2.5 11 0 16 0z" fill="url(#g1)"/>
    <circle cx="16" cy="10" r="9" fill="none" stroke="#fff" stroke-width="1.5" opacity="0.35"/>
    <path d="M12 8h6.2c2.2 0 4 1.8 4 4s-1.8 4-4 4H14v3h-2z" fill="url(#g2)"/>
    <rect x="14" y="9.5" width="4.5" height="5" rx="1" fill="#fff" opacity="0.9"/>
  </g>
  <g transform="translate(44 10)">
    <text x="0" y="14" fill="#0c2a4a" font-size="16" font-weight="700" letter-spacing="0.5">PREMIUM</text>
    <text x="0" y="30" fill="#5b6b7a" font-size="10" font-weight="600" letter-spacing="0.2">Training Institute</text>
  </g>
</svg>
